<svg width="16" height="14" viewBox="0 0 16 14" fill="none" xmlns="http://www.w3.org/2000/svg">
<path d="M14.3999 0.600098H1.59998C1.17564 0.600098 0.76868 0.768667 0.468624 1.06872C0.168569 1.36878 0 1.77574 0 2.20008V11.8C0 12.2243 0.168569 12.6313 0.468624 12.9313C0.76868 13.2314 1.17564 13.4 1.59998 13.4H14.3999C14.8242 13.4 15.2312 13.2314 15.5312 12.9313C15.8313 12.6313 15.9998 12.2243 15.9998 11.8V2.20008C15.9998 1.77574 15.8313 1.36878 15.5312 1.06872C15.2312 0.768667 14.8242 0.600098 14.3999 0.600098ZM1.59998 11.8V2.20008H14.3999V11.8H1.59998Z" fill="#FF5900"/>
<path d="M3.2002 3.80029H4.80018V10.2002H3.2002V3.80029ZM5.60017 3.80029H6.40016V10.2002H5.60017V3.80029ZM12.0001 3.80029H12.8001V10.2002H12.0001V3.80029ZM8.80014 3.80029H11.2001V10.2002H8.80014V3.80029ZM7.20015 3.80029H8.00015V10.2002H7.20015V3.80029Z" fill="#FF5900"/>
</svg>
