<svg width="16" height="16" viewBox="0 0 16 16" fill="none" xmlns="http://www.w3.org/2000/svg">
<path d="M7.99992 0C3.58876 0 0 3.58876 0 7.99992V11.3143C0 12.1335 0.717593 12.7999 1.59998 12.7999H2.39998C2.61215 12.7999 2.81563 12.7156 2.96566 12.5656C3.11568 12.4155 3.19997 12.2121 3.19997 11.9999V7.88552C3.19997 7.67335 3.11568 7.46987 2.96566 7.31984C2.81563 7.16981 2.61215 7.08553 2.39998 7.08553H1.67358C2.11838 3.98956 4.78235 1.59998 7.99992 1.59998C11.2175 1.59998 13.8815 3.98956 14.3263 7.08553H13.5999C13.3877 7.08553 13.1842 7.16981 13.0342 7.31984C12.8842 7.46987 12.7999 7.67335 12.7999 7.88552V12.7999C12.7999 13.6823 12.0823 14.3999 11.1999 14.3999H9.5999V13.5999H6.39994V15.9998H11.1999C12.9647 15.9998 14.3999 14.5647 14.3999 12.7999C15.2822 12.7999 15.9998 12.1335 15.9998 11.3143V7.99992C15.9998 3.58876 12.4111 0 7.99992 0Z" fill="#FF5900"/>
</svg>
