<svg width="16" height="16" viewBox="0 0 16 16" fill="none" xmlns="http://www.w3.org/2000/svg">
<path d="M0.799821 8.80007H1.59981V14.4C1.59981 15.2824 2.31741 16 3.1998 16H12.7997C13.6821 16 14.3997 15.2824 14.3997 14.4V8.80007H15.1997C15.3579 8.80004 15.5125 8.7531 15.644 8.6652C15.7756 8.57729 15.8781 8.45236 15.9386 8.3062C15.9991 8.16004 16.015 7.99922 15.9841 7.84406C15.9533 7.6889 15.8771 7.54637 15.7653 7.43449L8.56534 0.234559C8.49111 0.160203 8.40295 0.101213 8.3059 0.0609648C8.20885 0.0207167 8.10482 0 7.99975 0C7.89468 0 7.79065 0.0207167 7.6936 0.0609648C7.59655 0.101213 7.50838 0.160203 7.43416 0.234559L0.234227 7.43449C0.122381 7.54637 0.0462164 7.6889 0.0153626 7.84406C-0.0154911 7.99922 0.000351157 8.16004 0.0608866 8.3062C0.121422 8.45236 0.223933 8.57729 0.355459 8.6652C0.486986 8.7531 0.641623 8.80004 0.799821 8.80007ZM6.39977 14.4V10.4001H9.59973V14.4H6.39977ZM7.99975 1.93134L12.7997 6.73129V10.4001L12.8005 14.4H11.1997V10.4001C11.1997 9.51767 10.4821 8.80007 9.59973 8.80007H6.39977C5.51737 8.80007 4.79978 9.51767 4.79978 10.4001V14.4H3.1998V6.73129L7.99975 1.93134Z" fill="#FF5900"/>
</svg>
