<svg width="25" height="21" viewBox="0 0 25 21" fill="none" xmlns="http://www.w3.org/2000/svg">
<path d="M22.4998 0.5H2.49997C1.83694 0.5 1.20106 0.763389 0.732226 1.23223C0.263389 1.70106 0 2.33694 0 2.99997V17.9998C0 18.6629 0.263389 19.2987 0.732226 19.7676C1.20106 20.2364 1.83694 20.4998 2.49997 20.4998H22.4998C23.1628 20.4998 23.7987 20.2364 24.2675 19.7676C24.7364 19.2987 24.9998 18.6629 24.9998 17.9998V2.99997C24.9998 2.33694 24.7364 1.70106 24.2675 1.23223C23.7987 0.763389 23.1628 0.5 22.4998 0.5ZM2.49997 17.9998V2.99997H22.4998V17.9998H2.49997Z" fill="#434343"/>
<path d="M5 5.5H7.49997V15.4999H5V5.5ZM8.74996 5.5H9.99995V15.4999H8.74996V5.5ZM18.7499 5.5H19.9998V15.4999H18.7499V5.5ZM13.7499 5.5H17.4999V15.4999H13.7499V5.5ZM11.2499 5.5H12.4999V15.4999H11.2499V5.5Z" fill="#434343"/>
</svg>
