<svg width="12" height="16" viewBox="0 0 12 16" fill="none" xmlns="http://www.w3.org/2000/svg">
<path d="M3.59987 14.3999H8.39982V15.9998H3.59987V14.3999ZM9.92461 9.36951C10.7486 8.40472 11.5998 7.40713 11.5998 5.59994C11.5998 2.51277 9.08702 0 5.99985 0C2.91268 0 0.399902 2.51277 0.399902 5.59994C0.399902 7.42793 1.25349 8.42231 2.08069 9.38391C2.36708 9.7183 2.66388 10.0647 2.94788 10.4631C3.06308 10.6279 3.25187 11.2599 3.42067 11.9999H2.79988V13.5999H9.19981V11.9999H8.58062C8.75102 11.2583 8.94062 10.6247 9.05502 10.4599C9.33661 10.0575 9.63581 9.7079 9.92461 9.36951ZM7.74543 9.5399C7.39823 10.0335 7.10863 11.1999 6.94064 11.9999H5.05986C4.89266 11.1983 4.60226 10.0295 4.25106 9.5359C3.95087 9.12338 3.63159 8.72508 3.29427 8.34232C2.51508 7.43513 1.99989 6.83513 1.99989 5.59994C1.99989 3.39437 3.79427 1.59998 5.99985 1.59998C8.20542 1.59998 9.99981 3.39437 9.99981 5.59994C9.99981 6.81673 9.48541 7.41913 8.70782 8.33032C8.40942 8.68071 8.07103 9.07671 7.74543 9.5399Z" fill="#FF5900"/>
</svg>
