<svg width="16" height="16" viewBox="0 0 16 16" fill="none" xmlns="http://www.w3.org/2000/svg">
<path d="M14.2222 0H1.77778C0.791111 0 0 0.791111 0 1.77778V5.33333H1.77778V1.77778H14.2222V14.2222H1.77778V10.6667H0V14.2222C0 14.6937 0.187301 15.1459 0.520699 15.4793C0.854097 15.8127 1.30628 16 1.77778 16H14.2222C14.6937 16 15.1459 15.8127 15.4793 15.4793C15.8127 15.1459 16 14.6937 16 14.2222V1.77778C16 1.30628 15.8127 0.854097 15.4793 0.520699C15.1459 0.187301 14.6937 0 14.2222 0ZM6.29333 11.1822L7.55556 12.4444L12 8L7.55556 3.55556L6.29333 4.80889L8.59556 7.11111H0V8.88889H8.59556L6.29333 11.1822Z" fill="#5550B2"/>
</svg>
