<svg width="105" height="41" viewBox="0 0 105 41" fill="none" xmlns="http://www.w3.org/2000/svg">
<path d="M19.7041 31.6672C15.2297 31.7545 10.8855 30.1593 7.531 27.1971C2.96946 23.1305 0.000150183 16.3365 0.000150183 9.01549C-0.00815361 8.12183 0.328168 7.25933 0.939237 6.60719C1.55031 5.95504 2.38914 5.56341 3.28145 5.51364C3.7405 5.49553 4.19847 5.57034 4.62789 5.7336C5.0573 5.89686 5.44931 6.1452 5.78038 6.4637C6.11144 6.78221 6.37475 7.16432 6.55448 7.58711C6.73422 8.0099 6.82668 8.46464 6.82633 8.92404C6.82633 13.1252 8.36477 18.7895 12.0764 22.103C13.8222 23.716 16.0772 24.6675 18.4507 24.7926C18.9886 24.8303 19.8601 24.8464 19.8601 24.3139V9.02087C19.8496 8.13501 20.1779 7.2786 20.7778 6.62671C21.3777 5.97482 22.2039 5.57666 23.0876 5.51364C23.5491 5.49181 24.0102 5.56384 24.4431 5.72536C24.876 5.88688 25.2716 6.13454 25.606 6.45335C25.9404 6.77216 26.2066 7.1555 26.3886 7.58017C26.5706 8.00484 26.6645 8.46202 26.6647 8.92404V27.9717C26.6647 29.5371 25.4168 30.6613 23.8837 31.1992C23.1145 31.4843 21.8665 31.6618 19.6826 31.6618" fill="#EB5A1C"/>
<path d="M41.9578 31.7372C39.3714 31.7372 36.8432 30.9702 34.6927 29.5333C32.5422 28.0964 30.8661 26.0541 29.8764 23.6646C28.8866 21.2752 28.6277 18.6459 29.1323 16.1092C29.6368 13.5726 30.8823 11.2425 32.7111 9.41369C34.5399 7.58487 36.87 6.33943 39.4066 5.83486C41.9433 5.33029 44.5726 5.58925 46.962 6.579C49.3515 7.56876 51.3938 9.24484 52.8307 11.3953C54.2676 13.5458 55.0346 16.074 55.0346 18.6604C55.0317 22.1277 53.6531 25.4522 51.2013 27.9039C48.7495 30.3557 45.4251 31.7343 41.9578 31.7372ZM41.9578 11.5599C40.5537 11.5609 39.1814 11.9783 38.0144 12.7591C36.8474 13.54 35.9382 14.6493 35.4016 15.9469C34.865 17.2444 34.7251 18.6719 34.9997 20.0489C35.2743 21.4259 35.951 22.6906 36.9442 23.6831C37.9375 24.6756 39.2027 25.3513 40.5799 25.6248C41.9571 25.8984 43.3845 25.7575 44.6816 25.2199C45.9788 24.6823 47.0874 23.7722 47.8674 22.6047C48.6474 21.4371 49.0637 20.0645 49.0637 18.6604C49.0665 17.7254 48.8848 16.7991 48.5289 15.9345C48.1731 15.0698 47.6501 14.284 46.99 13.6218C46.3299 12.9597 45.5456 12.4344 44.6821 12.0759C43.8185 11.7175 42.8927 11.533 41.9578 11.533V11.5599Z" fill="#EB5A1C"/>
<path d="M69.6766 31.7372C67.5262 31.7371 65.4089 31.2067 63.5124 30.193C61.6158 29.1792 59.9986 27.7134 58.8039 25.9253C57.6091 24.1373 56.8738 22.0821 56.6631 19.942C56.4523 17.8019 56.7726 15.6428 57.5955 13.6561C58.4185 11.6693 59.7187 9.91614 61.381 8.55189C63.0434 7.18765 65.0165 6.25442 67.1257 5.83487C69.2348 5.41532 71.4149 5.5224 73.4728 6.14663C75.5306 6.77086 77.4028 7.89297 78.9234 9.41356C79.2007 9.69083 79.4206 10.02 79.5707 10.3822C79.7208 10.7445 79.798 11.1328 79.798 11.5249C79.798 11.917 79.7208 12.3053 79.5707 12.6675C79.4206 13.0298 79.2007 13.359 78.9234 13.6362C78.6462 13.9135 78.317 14.1334 77.9548 14.2835C77.5925 14.4335 77.2042 14.5108 76.8121 14.5108C76.42 14.5108 76.0317 14.4335 75.6695 14.2835C75.3072 14.1334 74.9781 13.9135 74.7008 13.6362C73.7071 12.6423 72.4409 11.9654 71.0625 11.6911C69.684 11.4168 68.2552 11.5575 66.9567 12.0953C65.6582 12.633 64.5483 13.5438 63.7674 14.7124C62.9866 15.881 62.5698 17.2549 62.5698 18.6604C62.5698 20.0658 62.9866 21.4397 63.7674 22.6083C64.5483 23.7769 65.6582 24.6877 66.9567 25.2255C68.2552 25.7633 69.684 25.9039 71.0625 25.6296C72.4409 25.3553 73.7071 24.6784 74.7008 23.6845C74.9781 23.4073 75.3072 23.1873 75.6695 23.0373C76.0317 22.8872 76.42 22.81 76.8121 22.81C77.2042 22.81 77.5925 22.8872 77.9548 23.0373C78.317 23.1873 78.6462 23.4073 78.9234 23.6845C79.2007 23.9618 79.4206 24.2909 79.5707 24.6532C79.7208 25.0155 79.798 25.4037 79.798 25.7959C79.798 26.188 79.7208 26.5762 79.5707 26.9385C79.4206 27.3008 79.2007 27.6299 78.9234 27.9072C77.7118 29.1251 76.2707 30.0906 74.6835 30.748C73.0963 31.4054 71.3946 31.7416 69.6766 31.7372Z" fill="#EB5A1C"/>
<path d="M102.065 20.4893C101.461 20.4035 100.846 20.5082 100.305 20.7888C99.7642 21.0694 99.3243 21.512 99.047 22.0546C98.5855 22.9037 97.9556 23.6498 97.196 24.2472C96.4363 24.8446 95.5627 25.2807 94.6287 25.5289C93.6947 25.7772 92.7199 25.8323 91.7639 25.6909C90.8079 25.5495 89.8907 25.2145 89.0686 24.7066C88.9733 24.6494 88.8956 24.5671 88.8438 24.4689C88.792 24.3706 88.7682 24.26 88.7748 24.1491C88.7815 24.0382 88.8184 23.9312 88.8816 23.8398C88.9447 23.7485 89.0317 23.6761 89.1331 23.6307L103.216 17.1757C103.567 17.0334 103.887 16.8222 104.155 16.5546C104.423 16.287 104.636 15.9683 104.779 15.6174C104.922 15.2665 104.994 14.8904 104.99 14.5113C104.986 14.1323 104.905 13.7579 104.754 13.4103C104.074 11.8118 103.081 10.3651 101.835 9.15445C100.589 7.94385 99.114 6.9937 97.4965 6.3595C95.879 5.72531 94.1514 5.41978 92.4145 5.46076C90.6777 5.50175 88.9664 5.88843 87.3806 6.59821C85.7949 7.30799 84.3664 8.32665 83.1788 9.59468C81.9911 10.8627 81.0681 12.3547 80.4635 13.9835C79.8589 15.6123 79.585 17.3452 79.6577 19.081C79.7304 20.8169 80.1482 22.5208 80.8869 24.0933L80.9191 24.1794L80.9622 24.2601C81.9898 26.4494 83.6045 28.3108 85.6267 29.6374C87.6489 30.964 89.9994 31.7038 92.4169 31.7746C94.8343 31.8454 97.2241 31.2444 99.3204 30.0384C101.417 28.8324 103.138 27.0687 104.292 24.9432C104.522 24.5169 104.646 24.041 104.652 23.5563C104.659 23.0717 104.547 22.5927 104.328 22.1605C104.108 21.7284 103.787 21.3559 103.392 21.0751C102.997 20.7944 102.54 20.6136 102.059 20.5485L102.065 20.4893ZM85.7765 17.6168C85.9554 16.4575 86.419 15.3606 87.1257 14.4243C87.8325 13.488 88.7603 12.7416 89.8262 12.2518C90.8922 11.762 92.0629 11.5441 93.2336 11.6177C94.4044 11.6913 95.5387 12.054 96.5349 12.6733C96.6336 12.7279 96.7148 12.8093 96.7691 12.9081C96.8235 13.0069 96.8487 13.1191 96.842 13.2316C96.8352 13.3442 96.7967 13.4525 96.731 13.5441C96.6652 13.6357 96.5748 13.7068 96.4703 13.7492L86.6372 18.2784C86.5308 18.3322 86.411 18.3535 86.2926 18.3397C86.1742 18.3259 86.0624 18.2776 85.9713 18.2007C85.8801 18.1239 85.8136 18.022 85.7799 17.9077C85.7462 17.7933 85.7469 17.6716 85.7819 17.5576L85.7765 17.6168Z" fill="#EB5A1C"/>
<path d="M98.3262 3.99673C97.5731 2.98544 94.394 0 92.8125 0C91.2311 0 88.052 2.98544 87.2989 3.99673C86.6157 4.92195 87.4818 5.02953 88.0089 4.76595C89.4861 3.95433 91.129 3.49069 92.8125 3.4104C94.4961 3.49069 96.139 3.95433 97.6162 4.76595C98.1541 5.02953 99.0147 4.92195 98.3262 3.99673Z" fill="#EB5A1C"/>
<path d="M58.2352 40.7526H58.9667C59.1507 40.7531 59.3302 40.6965 59.4806 40.5904C59.6309 40.4844 59.7446 40.3344 59.8059 40.1609L61.3228 35.9168C61.3389 35.8652 61.3711 35.8201 61.4146 35.7882C61.4582 35.7562 61.5109 35.7391 61.5649 35.7392H62.5762C62.8706 35.739 63.1576 35.6472 63.3976 35.4766C63.6375 35.306 63.8186 35.0651 63.9156 34.7871L63.964 34.658C63.9718 34.6402 63.9759 34.621 63.9759 34.6015C63.9759 34.5821 63.9718 34.5629 63.964 34.5451C63.9532 34.5295 63.9387 34.517 63.9218 34.5085C63.9048 34.5 63.8861 34.496 63.8672 34.4967H58.6332C58.5447 34.4962 58.4582 34.5234 58.3858 34.5746C58.3135 34.6257 58.2589 34.6981 58.2298 34.7818L57.9501 35.5779C57.943 35.596 57.9405 35.6157 57.9428 35.635C57.9451 35.6544 57.9522 35.6728 57.9633 35.6888C57.9745 35.7048 57.9895 35.7177 58.0069 35.7265C58.0243 35.7353 58.0435 35.7397 58.063 35.7392H59.5477C59.5892 35.7394 59.6301 35.7498 59.6667 35.7695C59.7033 35.7892 59.7345 35.8176 59.7575 35.8522C59.7833 35.8852 59.8003 35.9243 59.8069 35.9657C59.8135 36.0071 59.8094 36.0495 59.7951 36.0889L58.1814 40.6935C58.1776 40.7 58.1756 40.7074 58.1756 40.715C58.1756 40.7225 58.1776 40.73 58.1814 40.7365C58.1873 40.739 58.1937 40.7403 58.2002 40.7403C58.2067 40.7403 58.2131 40.739 58.219 40.7365" fill="#EB5A1C"/>
<path d="M69.5529 34.7872L69.6336 34.5558C69.6374 34.5493 69.6394 34.5419 69.6394 34.5343C69.6394 34.5268 69.6374 34.5194 69.6336 34.5128C69.6277 34.5103 69.6213 34.509 69.6148 34.509C69.6083 34.509 69.6019 34.5103 69.596 34.5128H65.8682C65.58 34.5159 65.2997 34.6066 65.0643 34.7728C64.8289 34.939 64.6496 35.1729 64.5503 35.4434L62.9903 39.8812C62.9559 39.9804 62.9457 40.0864 62.9607 40.1903C62.9757 40.2941 63.0153 40.3929 63.0764 40.4783C63.1362 40.5651 63.2167 40.6357 63.3106 40.6836C63.4046 40.7315 63.5089 40.7552 63.6143 40.7527H66.5782C66.7589 40.7429 66.9332 40.6821 67.0807 40.5774C67.2283 40.4727 67.3432 40.3283 67.412 40.161L67.6218 39.5692C67.6247 39.5634 67.6261 39.5569 67.6261 39.5504C67.6261 39.5439 67.6247 39.5375 67.6218 39.5316C67.6159 39.5287 67.6095 39.5273 67.603 39.5273C67.5965 39.5273 67.59 39.5287 67.5842 39.5316H64.8946C64.8653 39.5316 64.8365 39.5248 64.8104 39.5117C64.7842 39.4986 64.7615 39.4797 64.7439 39.4563C64.7307 39.4295 64.7238 39.4001 64.7238 39.3702C64.7238 39.3404 64.7307 39.3109 64.7439 39.2841L65.0183 38.5095C65.0408 38.4434 65.0836 38.386 65.1406 38.3454C65.1975 38.3049 65.2658 38.2833 65.3357 38.2836H66.3093C66.6037 38.2833 66.8907 38.1916 67.1307 38.021C67.3707 37.8504 67.5517 37.6095 67.6487 37.3315L67.7401 37.0733C67.7427 37.0673 67.744 37.0609 67.744 37.0545C67.744 37.048 67.7427 37.0416 67.7401 37.0356C67.728 37.0311 67.7146 37.0311 67.7025 37.0356H65.8036C65.7744 37.0356 65.7456 37.0288 65.7194 37.0158C65.6933 37.0027 65.6706 36.9837 65.653 36.9603C65.6398 36.9345 65.6329 36.906 65.6329 36.877C65.6329 36.848 65.6398 36.8194 65.653 36.7936L65.9274 36.0082C65.9513 35.9429 65.9944 35.8864 66.051 35.8461C66.1077 35.8057 66.1752 35.7835 66.2447 35.7823H68.2996C68.594 35.782 68.881 35.6902 69.121 35.5197C69.361 35.3491 69.542 35.1081 69.639 34.8302" fill="#EB5A1C"/>
<path d="M79.3377 35.7393C79.6339 35.7412 79.9234 35.6505 80.1655 35.4798C80.4076 35.309 80.5902 35.0669 80.6879 34.7872L80.7685 34.5559C80.7723 34.5493 80.7743 34.5419 80.7743 34.5343C80.7743 34.5268 80.7723 34.5194 80.7685 34.5128C80.7627 34.51 80.7562 34.5085 80.7497 34.5085C80.7432 34.5085 80.7368 34.51 80.7309 34.5128H77.0031C76.7094 34.5127 76.4228 34.6037 76.1829 34.7733C75.943 34.9428 75.7616 35.1826 75.6637 35.4596L74.1037 39.8974C74.0693 39.9965 74.0591 40.1025 74.0741 40.2064C74.0891 40.3103 74.1288 40.4091 74.1898 40.4945C74.2496 40.5813 74.3301 40.6518 74.4241 40.6997C74.518 40.7476 74.6223 40.7713 74.7277 40.7688H77.6916C77.8723 40.759 78.0466 40.6983 78.1941 40.5935C78.3417 40.4888 78.4566 40.3444 78.5254 40.1771L78.7352 39.5854C78.7381 39.5795 78.7396 39.5731 78.7396 39.5666C78.7396 39.56 78.7381 39.5536 78.7352 39.5477C78.7293 39.5449 78.7229 39.5434 78.7164 39.5434C78.7099 39.5434 78.7034 39.5449 78.6976 39.5477H76.008C75.9787 39.5477 75.9499 39.5409 75.9238 39.5279C75.8976 39.5148 75.8749 39.4958 75.8574 39.4724C75.8441 39.4457 75.8372 39.4162 75.8372 39.3864C75.8372 39.3565 75.8441 39.327 75.8574 39.3003L76.1317 38.5257C76.1542 38.4595 76.197 38.4021 76.254 38.3616C76.3109 38.321 76.3792 38.2994 76.4491 38.2998H77.4227C77.7171 38.2995 78.0041 38.2077 78.2441 38.0371C78.4841 37.8665 78.6651 37.6256 78.7621 37.3476L78.8536 37.0894C78.8561 37.0835 78.8574 37.0771 78.8574 37.0706C78.8574 37.0642 78.8561 37.0577 78.8536 37.0518C78.8414 37.0473 78.828 37.0473 78.8159 37.0518H76.9171C76.8878 37.0518 76.859 37.045 76.8329 37.0319C76.8067 37.0188 76.784 36.9999 76.7664 36.9765C76.7532 36.9507 76.7463 36.9221 76.7463 36.8931C76.7463 36.8641 76.7532 36.8355 76.7664 36.8097L77.0408 36.0244C77.0647 35.9591 77.1078 35.9025 77.1644 35.8622C77.2211 35.8219 77.2886 35.7996 77.3581 35.7984L79.3377 35.7393Z" fill="#EB5A1C"/>
<path d="M86.3897 34.7872L86.4704 34.5558C86.4742 34.5493 86.4762 34.5419 86.4762 34.5343C86.4762 34.5268 86.4742 34.5194 86.4704 34.5128C86.4645 34.5103 86.4581 34.509 86.4516 34.509C86.4451 34.509 86.4387 34.5103 86.4328 34.5128H82.705C82.4112 34.5127 82.1247 34.6037 81.8848 34.7733C81.6449 34.9428 81.4635 35.1826 81.3656 35.4595L79.8056 39.8974C79.7713 39.9961 79.7612 40.1017 79.7759 40.2052C79.7907 40.3087 79.83 40.4072 79.8905 40.4924C79.951 40.5777 80.031 40.6472 80.1238 40.6953C80.2167 40.7434 80.3197 40.7686 80.4242 40.7688H83.6517C83.8324 40.759 84.0066 40.6983 84.1542 40.5935C84.3018 40.4888 84.4166 40.3444 84.4855 40.1771L84.6953 39.5854C84.6982 39.5795 84.6996 39.5731 84.6996 39.5666C84.6996 39.56 84.6982 39.5536 84.6953 39.5477C84.6894 39.5449 84.683 39.5434 84.6765 39.5434C84.6699 39.5434 84.6635 39.5449 84.6576 39.5477H81.6991C81.6699 39.5477 81.641 39.5409 81.6149 39.5278C81.5888 39.5148 81.566 39.4958 81.5485 39.4724C81.5325 39.4491 81.5218 39.4226 81.5172 39.3947C81.5125 39.3668 81.514 39.3383 81.5216 39.311L82.6781 36.0136C82.702 35.9483 82.7451 35.8918 82.8018 35.8514C82.8584 35.8111 82.9259 35.7889 82.9955 35.7877H85.0503C85.3445 35.7866 85.6312 35.6945 85.871 35.5241C86.1108 35.3536 86.292 35.1131 86.3897 34.8356" fill="#EB5A1C"/>
<path d="M93.7216 35.3681C93.7561 35.2689 93.7662 35.163 93.7512 35.0591C93.7363 34.9552 93.6966 34.8564 93.6355 34.771C93.5757 34.6842 93.4952 34.6137 93.4013 34.5658C93.3074 34.5179 93.203 34.4941 93.0976 34.4967H88.4177C88.124 34.4966 87.8374 34.5876 87.5975 34.7571C87.3576 34.9267 87.1762 35.1665 87.0783 35.4434L85.5291 39.8812C85.4935 39.98 85.4824 40.0859 85.4966 40.1899C85.5108 40.2939 85.55 40.393 85.6107 40.4786C85.6715 40.5642 85.7521 40.6338 85.8456 40.6815C85.9391 40.7293 86.0427 40.7537 86.1477 40.7527H90.8222C91.116 40.7528 91.4026 40.6618 91.6424 40.4922C91.8823 40.3227 92.0637 40.0829 92.1616 39.8059L93.7216 35.3681ZM91.9841 35.9867L90.8437 39.268C90.8199 39.3333 90.7767 39.3899 90.7201 39.4302C90.6634 39.4705 90.5959 39.4927 90.5264 39.4939H87.4226C87.3933 39.4944 87.3643 39.4877 87.3381 39.4746C87.3119 39.4615 87.2892 39.4423 87.272 39.4186C87.2544 39.394 87.2427 39.3656 87.2381 39.3358C87.2334 39.3059 87.2358 39.2753 87.2451 39.2465L88.4016 35.9491C88.4258 35.8829 88.4697 35.8258 88.5275 35.7854C88.5852 35.745 88.6539 35.7232 88.7243 35.7231H91.8228C91.8528 35.7217 91.8827 35.7285 91.9092 35.7427C91.9357 35.7569 91.9579 35.778 91.9734 35.8038C91.9928 35.8299 92.0042 35.8612 92.0061 35.8937C92.008 35.9262 92.0004 35.9585 91.9841 35.9867Z" fill="#EB5A1C"/>
<path d="M71.0053 34.4967C70.8696 34.4958 70.7371 34.5373 70.6262 34.6154C70.5153 34.6935 70.4315 34.8043 70.3867 34.9324L68.7729 39.5746C68.7255 39.7083 68.711 39.8514 68.7307 39.9919C68.7504 40.1323 68.8036 40.266 68.8859 40.3815C68.967 40.4971 69.0749 40.5913 69.2005 40.656C69.3261 40.7207 69.4655 40.7538 69.6067 40.7526H72.2963C72.4795 40.7528 72.6582 40.6959 72.8076 40.5899C72.9571 40.4839 73.0697 40.3339 73.1301 40.1609L73.3399 39.5692C73.3427 39.5634 73.3442 39.5569 73.3442 39.5504C73.3442 39.5439 73.3427 39.5374 73.3399 39.5316C73.334 39.5287 73.3276 39.5272 73.321 39.5272C73.3145 39.5272 73.3081 39.5287 73.3022 39.5316H70.7686C70.7152 39.5312 70.6625 39.5183 70.6149 39.494C70.5673 39.4697 70.526 39.4347 70.4943 39.3917C70.4624 39.3471 70.4418 39.2954 70.4343 39.241C70.4268 39.1867 70.4326 39.1313 70.4512 39.0797L72.0327 34.5773C72.0365 34.5708 72.0385 34.5634 72.0385 34.5558C72.0385 34.5483 72.0365 34.5409 72.0327 34.5343C72.0269 34.5315 72.0204 34.53 72.0139 34.53C72.0074 34.53 72.0009 34.5315 71.9951 34.5343L71.0053 34.4967Z" fill="#EB5A1C"/>
<path d="M99.956 40.7258H100.682C100.876 40.7262 101.066 40.67 101.229 40.5639C101.391 40.4578 101.519 40.3065 101.597 40.1287L103.34 35.3573C103.364 35.2651 103.366 35.1684 103.347 35.075C103.327 34.9816 103.286 34.8941 103.227 34.8194C103.141 34.7082 103.031 34.6183 102.905 34.5568C102.779 34.4952 102.641 34.4636 102.5 34.4644H96.4165C96.1025 34.4437 95.7903 34.526 95.5272 34.6988C95.2641 34.8716 95.0646 35.1255 94.9588 35.4219L93.7108 39.0152L93.103 40.6289C93.1116 40.6408 93.1229 40.6504 93.136 40.6569C93.1491 40.6635 93.1636 40.6668 93.1783 40.6666H93.9045C94.0988 40.6652 94.2886 40.6076 94.4509 40.5007C94.6131 40.3938 94.741 40.2421 94.8189 40.0641L96.2982 36.0835C96.3231 36.0142 96.3693 35.9545 96.4301 35.9129C96.491 35.8714 96.5634 35.8502 96.6371 35.8522H97.8528C97.885 35.8511 97.9171 35.8579 97.9461 35.872C97.9752 35.886 98.0004 35.9069 98.0195 35.9329C98.0311 35.9582 98.0371 35.9857 98.0371 36.0136C98.0371 36.0414 98.0311 36.069 98.0195 36.0943L96.8254 39.3379C96.8234 39.3421 96.8224 39.3467 96.8224 39.3514C96.8224 39.356 96.8234 39.3606 96.8254 39.3648C96.8345 39.3757 96.8461 39.3843 96.8592 39.3899C96.8723 39.3955 96.8865 39.3979 96.9007 39.3971H97.2127C97.5288 39.4104 97.8411 39.3233 98.1048 39.1485C98.3686 38.9736 98.5703 38.7199 98.6812 38.4235L99.6548 36.1373C99.6791 36.0695 99.7247 36.0113 99.7848 35.9715C99.845 35.9318 99.9164 35.9126 99.9883 35.9168H101.333C101.365 35.917 101.397 35.9243 101.426 35.9382C101.454 35.9522 101.48 35.9724 101.5 35.9975C101.516 36.0208 101.527 36.0473 101.531 36.0752C101.536 36.103 101.534 36.1316 101.527 36.1588L99.8646 40.6666C99.8732 40.6784 99.8846 40.688 99.8977 40.6946C99.9108 40.7011 99.9252 40.7045 99.9399 40.7042" fill="#EB5A1C"/>
</svg>
