<svg width="95" height="45" viewBox="0 0 95 45" fill="none" xmlns="http://www.w3.org/2000/svg">
<path fill-rule="evenodd" clip-rule="evenodd" d="M17.9051 44.8621C13.6496 44.8621 9.88332 43.4742 6.90865 40.821C2.78108 37.1411 0.117528 31.0033 0.0967867 24.3885C0.0916013 22.7188 1.39313 21.2876 3.06109 21.2237C4.81894 21.1563 6.26566 22.5633 6.26566 24.3055C6.26566 28.1012 7.65534 33.2227 11.0137 36.2164C12.6385 37.6631 14.4395 38.4755 16.773 38.6431C17.25 38.6777 18.0451 38.6898 18.0451 38.211V24.392C18.0451 22.7309 19.3207 21.3015 20.98 21.2237C22.7517 21.1407 24.214 22.5512 24.214 24.3038V41.5279C24.214 42.9401 23.0853 43.9322 21.7043 44.4438C21.0077 44.6996 19.879 44.8621 17.9051 44.8621Z" fill="#FF5900"/>
<path fill-rule="evenodd" clip-rule="evenodd" d="M37.995 26.6615C34.4551 26.6615 31.5755 29.5411 31.5755 33.081C31.5755 36.6208 34.4551 39.5005 37.995 39.5005C41.5349 39.5005 44.4145 36.6208 44.4145 33.081C44.4145 29.5411 41.5349 26.6615 37.995 26.6615ZM37.995 44.8984C31.4787 44.8984 26.1775 39.5973 26.1775 33.081C26.1775 26.5664 31.4787 21.2635 37.995 21.2635C44.5113 21.2635 49.8125 26.5647 49.8125 33.081C49.8125 39.5973 44.5113 44.8984 37.995 44.8984Z" fill="#FF5900"/>
<path fill-rule="evenodd" clip-rule="evenodd" d="M63.0697 44.8984C56.5534 44.8984 51.2523 39.5973 51.2523 33.081C51.2523 26.5664 56.5534 21.2635 63.0697 21.2635C66.2259 21.2635 69.1937 22.4924 71.4251 24.7239C72.4795 25.7782 72.4795 27.4859 71.4251 28.5403C70.3708 29.5947 68.6613 29.5947 67.6087 28.5403C66.3953 27.3269 64.7844 26.6597 63.0697 26.6597C59.5299 26.6597 56.6502 29.5394 56.6502 33.0792C56.6502 36.6191 59.5299 39.4987 63.0697 39.4987C64.7844 39.4987 66.397 38.8316 67.6087 37.6182C68.663 36.5655 70.3708 36.5655 71.4251 37.6182C72.4795 38.6725 72.4795 40.382 71.4251 41.4346C69.1937 43.6695 66.2276 44.8984 63.0697 44.8984Z" fill="#FF5900"/>
<path fill-rule="evenodd" clip-rule="evenodd" d="M77.6286 32.1061C78.1074 29.0346 80.7692 26.6753 83.972 26.6753C85.1854 26.6753 86.3469 27.0227 87.3425 27.638C87.7142 27.8679 87.6796 28.4176 87.2838 28.6008L78.3978 32.6903C78.0002 32.8718 77.5612 32.5399 77.6286 32.1061ZM92.3464 34.7558C91.2333 34.5743 90.1565 35.1637 89.6172 36.1559C88.4902 38.2283 86.3279 39.5143 83.972 39.5143C82.7345 39.5143 81.5781 39.1634 80.5981 38.555C80.2282 38.3234 80.2628 37.7737 80.6569 37.594L93.3818 31.7362L93.3852 31.7345C94.7403 31.1883 95.3695 29.6465 94.7766 28.3121C93.5633 25.5777 91.3785 23.4603 88.7374 22.2936C87.2613 21.6386 85.64 21.2808 83.9703 21.2808C82.1105 21.2808 80.3492 21.7129 78.7832 22.482C74.8596 24.4058 72.1528 28.4418 72.1528 33.0982C72.1528 34.8336 72.5314 36.4791 73.2055 37.9639C73.2158 37.9881 73.2228 38.0157 73.2348 38.0399C73.2487 38.0658 73.2625 38.09 73.2729 38.116C75.1638 42.1294 79.2464 44.9157 83.9703 44.9157C88.3053 44.9157 92.2877 42.5477 94.3584 38.733C95.2226 37.1446 94.3324 35.0791 92.3464 34.7558Z" fill="#FF5900"/>
<path fill-rule="evenodd" clip-rule="evenodd" d="M88.9655 19.8531C88.2862 18.937 85.4118 16.2527 83.9823 16.2389C82.5564 16.2527 79.6802 18.937 78.9992 19.8531C78.3787 20.6862 79.1617 20.7865 79.6405 20.5445C80.9835 19.8704 82.489 19.3242 83.9823 19.3225C85.4757 19.3242 86.9812 19.8704 88.3242 20.5445C88.8065 20.7865 89.5895 20.6862 88.9655 19.8531Z" fill="#FF5900"/>
<path d="M14.9028 1.3707C15.0048 1.57293 15.0653 1.75442 15.0843 1.91516C15.1033 2.07591 15.1136 2.31098 15.1136 2.62037V13.8087C15.1136 14.7351 14.8717 15.2796 14.386 15.4421C14.144 15.5233 13.838 15.5631 13.4682 15.5631C13.0983 15.5631 12.8044 15.5302 12.5884 15.4628C12.3706 15.3954 12.2064 15.3159 12.0906 15.2208C11.9765 15.1275 11.8866 14.9927 11.8227 14.8181C11.7587 14.59 11.7276 14.2408 11.7276 13.7707V7.01757C11.4078 7.43413 10.9429 8.09613 10.331 9.00358C9.71913 9.91102 9.33022 10.478 9.16429 10.7061C8.99836 10.9343 8.88428 11.0933 8.82033 11.1797C8.75638 11.2679 8.60081 11.3888 8.35191 11.5427C8.10302 11.6965 7.83511 11.7743 7.54818 11.7743C7.26126 11.7743 7.00026 11.7034 6.76346 11.5634C6.52666 11.4217 6.359 11.2851 6.25702 11.1503L6.10319 10.9291C5.84738 10.5938 5.3444 9.87817 4.59079 8.78233C3.83718 7.68649 3.42926 7.09881 3.36704 7.01757V13.8104C3.36704 14.1198 3.35667 14.3514 3.33765 14.5053C3.31864 14.6591 3.25815 14.8319 3.15617 15.0186C2.96431 15.3816 2.46651 15.5631 1.66451 15.5631C0.886699 15.5631 0.401001 15.3816 0.210871 15.0186C0.108892 14.8302 0.0483965 14.6556 0.0293835 14.4949C0.0103704 14.3341 0 14.0922 0 13.7689V2.58062C0 2.27123 0.0103704 2.03961 0.0293835 1.88578C0.0483965 1.73195 0.108892 1.55391 0.210871 1.35168C0.40273 1.00254 0.900527 0.827962 1.70253 0.827962C2.0465 0.827962 2.34379 0.871174 2.59269 0.959325C2.84159 1.04748 3.00406 1.13736 3.08011 1.23069L3.19419 1.35168L7.53781 7.35808C9.70703 4.33501 11.1537 2.33864 11.8814 1.3707C12.0975 1.00772 12.6108 0.826233 13.4215 0.826233C14.2287 0.826233 14.723 1.00772 14.9028 1.3707Z" fill="#FF5900"/>
<path d="M19.7909 2.99373C19.6958 3.18905 19.5264 3.3256 19.2844 3.40683C19.0424 3.48807 18.7192 3.52783 18.3182 3.52783C17.9172 3.52783 17.594 3.48807 17.352 3.40683C17.11 3.3256 16.9406 3.18559 16.8456 2.98336C16.7505 2.78113 16.6917 2.6031 16.6727 2.44927C16.6537 2.29543 16.6433 2.06382 16.6433 1.75443C16.6433 1.44503 16.6537 1.21342 16.6727 1.05959C16.6917 0.905755 16.7453 0.734637 16.8352 0.546235C17.0132 0.183259 17.511 0.00177002 18.3269 0.00177002C19.1306 0.00177002 19.6146 0.183259 19.7805 0.546235C19.8825 0.748465 19.943 0.926495 19.962 1.08033C19.981 1.23589 19.9914 1.4675 19.9914 1.77517C19.9914 2.08456 19.981 2.31618 19.962 2.47001C19.943 2.62384 19.8859 2.79842 19.7909 2.99373ZM16.6433 6.73239C16.6433 6.423 16.6537 6.19138 16.6727 6.03755C16.6917 5.88372 16.7453 5.70569 16.8352 5.50346C17.0132 5.15431 17.511 4.97973 18.3269 4.97973C18.9387 4.97973 19.3726 5.09381 19.6284 5.32197C19.8444 5.51037 19.9603 5.79902 19.9724 6.18965C19.9845 6.32447 19.9914 6.51979 19.9914 6.77387V13.8294C19.9914 14.1388 19.981 14.3705 19.962 14.5243C19.943 14.6781 19.8825 14.8561 19.7805 15.0584C19.6146 15.4075 19.1237 15.5821 18.3078 15.5821C17.5041 15.5821 17.0132 15.4006 16.8352 15.0376C16.7453 14.8354 16.6917 14.6608 16.6727 14.5139C16.6537 14.367 16.6433 14.1302 16.6433 13.8087V6.73239Z" fill="#FF5900"/>
<path d="M27.1281 4.95896C28.4037 4.95896 29.465 5.47232 30.3137 6.50075C31.1624 7.52918 31.5858 8.78232 31.5858 10.2601V13.8087C31.5858 14.1181 31.5755 14.3497 31.5565 14.5035C31.5374 14.6573 31.4821 14.8302 31.394 15.0169C31.2159 15.3798 30.7181 15.5613 29.9023 15.5613C28.9966 15.5613 28.4729 15.3124 28.3329 14.8146C28.2568 14.5865 28.2188 14.2442 28.2188 13.7862V10.2377C28.2188 9.6863 28.0684 9.25764 27.7694 8.94825C27.4704 8.63885 27.0676 8.48502 26.5647 8.48502C26.06 8.48502 25.652 8.64577 25.3409 8.96899C25.0281 9.29221 24.8725 9.71568 24.8725 10.2394V13.8069C24.8725 14.1163 24.8621 14.348 24.8431 14.5018C24.8241 14.6556 24.7636 14.8285 24.6616 15.0151C24.4957 15.3781 24.0048 15.5596 23.189 15.5596C22.3852 15.5596 21.8944 15.3781 21.7163 15.0151C21.6265 14.8129 21.5729 14.6349 21.5539 14.481C21.5348 14.3272 21.5245 14.0956 21.5245 13.7862V6.6494C21.5245 6.35383 21.5348 6.12913 21.5539 5.97357C21.5729 5.81973 21.6334 5.64862 21.7353 5.46022C21.9134 5.1249 22.4043 4.95551 23.208 4.95551C23.9858 4.95551 24.4646 5.10934 24.6426 5.41873C24.7705 5.64689 24.8345 5.92344 24.8345 6.24494C24.8846 6.1516 25.0004 6.01678 25.1784 5.84221C25.3565 5.66763 25.5293 5.5259 25.6952 5.41873C26.1274 5.1128 26.6044 4.95896 27.1281 4.95896Z" fill="#FF5900"/>
<path d="M38.7037 4.9987C39.9793 4.9987 41.0405 5.51033 41.8892 6.53012C42.7379 7.55164 43.1614 8.80132 43.1614 10.2791V13.8277C43.1614 14.1371 43.151 14.3687 43.132 14.5225C43.113 14.6763 43.0525 14.8544 42.9505 15.0566C42.7846 15.4058 42.2937 15.5803 41.4778 15.5803C40.7 15.5803 40.2143 15.4058 40.0242 15.0566C39.9222 14.8544 39.8617 14.6729 39.8427 14.5121C39.8237 14.3514 39.8133 14.1094 39.8133 13.7862V10.2584C39.8133 9.70703 39.6664 9.27837 39.3726 8.96898C39.0787 8.65958 38.7054 8.50575 38.2525 8.50575C37.7997 8.50575 37.4004 8.65094 37.0564 8.93959C36.7125 9.22824 36.5137 9.55492 36.4636 9.9179V13.8294C36.4636 14.1388 36.4532 14.3704 36.4342 14.5242C36.4152 14.6781 36.3547 14.8561 36.2527 15.0583C36.0868 15.4075 35.5959 15.5821 34.7801 15.5821C33.9763 15.5821 33.4854 15.4006 33.3074 15.0376C33.2175 14.8354 33.1639 14.6608 33.1449 14.5139C33.1259 14.367 33.1156 14.1302 33.1156 13.8087V1.75266C33.1156 1.44326 33.1259 1.21165 33.1449 1.05782C33.1639 0.903985 33.2175 0.732867 33.3074 0.544465C33.4854 0.181489 33.9832 0 34.7991 0C35.6028 0 36.0868 0.181489 36.2527 0.544465C36.3547 0.746695 36.4152 0.924725 36.4342 1.07856C36.4532 1.23412 36.4636 1.46573 36.4636 1.7734V6.22764C37.1031 5.40835 37.8498 4.9987 38.7037 4.9987Z" fill="#FF5900"/>
<path d="M51.2367 6.08767C51.3128 5.33579 51.8175 4.95898 52.7491 4.95898C53.2469 4.95898 53.6168 4.99874 53.8588 5.07998C54.1008 5.16121 54.2702 5.30122 54.3652 5.50345C54.4603 5.70568 54.5191 5.88371 54.5381 6.03754C54.5571 6.19138 54.5675 6.42472 54.5675 6.73238V13.788C54.5675 14.0973 54.5588 14.329 54.5381 14.4828C54.5191 14.6384 54.4655 14.8147 54.3756 15.0169C54.1976 15.366 53.7603 15.5406 53.0654 15.5406C52.3706 15.5406 51.9039 15.4507 51.6689 15.2692C51.4321 15.0878 51.2955 14.8233 51.2575 14.4724C50.7856 15.1845 49.9974 15.5406 48.8947 15.5406C47.7919 15.5406 46.7669 15.01 45.8232 13.9487C44.8795 12.8874 44.4076 11.6533 44.4076 10.2498C44.4076 8.84629 44.8829 7.61563 45.8336 6.56127C46.7842 5.50691 47.8265 4.978 48.9621 4.978C49.3959 4.978 49.7917 5.05924 50.1478 5.21998C50.5056 5.38073 50.7528 5.53283 50.8945 5.67284C51.0328 5.81457 51.1469 5.95285 51.2367 6.08767ZM47.7539 10.2809C47.7539 10.7251 47.9198 11.1244 48.2517 11.4805C48.5835 11.8365 48.9846 12.0146 49.4564 12.0146C49.9283 12.0146 50.3207 11.8331 50.6335 11.4701C50.9464 11.1071 51.1019 10.7078 51.1019 10.2705C51.1019 9.83324 50.9515 9.42705 50.6525 9.05025C50.3535 8.67344 49.9508 8.48504 49.4478 8.48504C48.9431 8.48504 48.5352 8.67344 48.224 9.05025C47.9094 9.42705 47.7539 9.8367 47.7539 10.2809Z" fill="#FF5900"/>
</svg>
