<svg width="16" height="16" viewBox="0 0 16 16" fill="none" xmlns="http://www.w3.org/2000/svg">
<path d="M11.7697 8.23448C11.6954 8.16012 11.6073 8.10113 11.5102 8.06088C11.4132 8.02064 11.3091 7.99992 11.2041 7.99992C11.099 7.99992 10.995 8.02064 10.8979 8.06088C10.8009 8.10113 10.7127 8.16012 10.6385 8.23448L9.36328 9.50967C8.77209 9.33367 7.6689 8.93367 6.9697 8.23448C6.27051 7.53529 5.87051 6.4321 5.69452 5.8409L6.9697 4.56571C7.04406 4.49149 7.10305 4.40332 7.1433 4.30627C7.18355 4.20922 7.20426 4.10519 7.20426 4.00012C7.20426 3.89506 7.18355 3.79102 7.1433 3.69397C7.10305 3.59692 7.04406 3.50876 6.9697 3.43453L3.76974 0.234559C3.69551 0.160203 3.60734 0.101213 3.51029 0.0609648C3.41324 0.0207167 3.30921 0 3.20414 0C3.09908 0 2.99504 0.0207167 2.89799 0.0609648C2.80094 0.101213 2.71278 0.160203 2.63855 0.234559L0.468969 2.40414C0.164972 2.70813 -0.0062267 3.12573 0.000173234 3.55213C0.018573 4.69131 0.32017 8.64807 3.43854 11.7664C6.55691 14.8848 10.5137 15.1856 11.6537 15.2048H11.6761C12.0985 15.2048 12.4976 15.0384 12.8 14.736L14.9696 12.5664C15.044 12.4922 15.103 12.404 15.1432 12.307C15.1835 12.2099 15.2042 12.1059 15.2042 12.0008C15.2042 11.8958 15.1835 11.7917 15.1432 11.6947C15.103 11.5976 15.044 11.5095 14.9696 11.4352L11.7697 8.23448ZM11.6681 13.604C10.6697 13.5872 7.2537 13.3192 4.56973 10.6345C1.87695 7.94168 1.61616 4.51372 1.60016 3.53533L3.20414 1.93134L5.27292 4.00012L4.23853 5.03451C4.1445 5.12847 4.07537 5.24438 4.03737 5.37176C3.99938 5.49915 3.99373 5.63399 4.02093 5.7641C4.04013 5.8561 4.50973 8.03768 5.83771 9.36567C7.1657 10.6937 9.34728 11.1632 9.43928 11.1824C9.56931 11.2104 9.70429 11.2052 9.83179 11.1673C9.95929 11.1294 10.0752 11.0601 10.1689 10.9657L11.2041 9.93126L13.2728 12L11.6681 13.604Z" fill="#FF5900"/>
</svg>
