<svg width="24" height="24" viewBox="0 0 24 24" fill="none" xmlns="http://www.w3.org/2000/svg">
<path d="M18.3901 12.8664C18.2741 12.7502 18.1363 12.658 17.9847 12.5951C17.8331 12.5322 17.6705 12.4999 17.5063 12.4999C17.3422 12.4999 17.1796 12.5322 17.028 12.5951C16.8763 12.658 16.7386 12.7502 16.6226 12.8664L14.6301 14.8589C13.7064 14.5839 11.9827 13.9589 10.8902 12.8664C9.79767 11.7739 9.17268 10.0502 8.89768 9.12641L10.8902 7.13393C11.0063 7.01795 11.0985 6.88019 11.1614 6.72855C11.2243 6.57691 11.2567 6.41435 11.2567 6.25019C11.2567 6.08602 11.2243 5.92347 11.1614 5.77183C11.0985 5.62018 11.0063 5.48243 10.8902 5.36645L5.89021 0.366498C5.77423 0.250317 5.63647 0.158145 5.48483 0.0952576C5.33319 0.0323698 5.17064 0 5.00647 0C4.84231 0 4.67975 0.0323698 4.52811 0.0952576C4.37647 0.158145 4.23871 0.250317 4.12273 0.366498L0.732764 3.75646C0.257768 4.23146 -0.00972922 4.88395 0.000270678 5.5502C0.0290204 7.33018 0.500266 13.5126 5.37272 18.3851C10.2452 23.2575 16.4276 23.7275 18.2088 23.7575H18.2438C18.9038 23.7575 19.5276 23.4975 20.0001 23.025L23.39 19.6351C23.5062 19.5191 23.5984 19.3813 23.6613 19.2297C23.7242 19.078 23.7565 18.9155 23.7565 18.7513C23.7565 18.5871 23.7242 18.4246 23.6613 18.273C23.5984 18.1213 23.5062 17.9836 23.39 17.8676L18.3901 12.8664ZM18.2313 21.2563C16.6714 21.23 11.3339 20.8113 7.1402 16.6163C2.93274 12.4089 2.52525 7.05268 2.50025 5.52395L5.00647 3.01772L8.23894 6.25019L6.6227 7.86642C6.47578 8.01323 6.36776 8.19434 6.3084 8.39338C6.24904 8.59241 6.24021 8.80311 6.28271 9.00641C6.31271 9.15016 7.04645 12.5589 9.12143 14.6339C11.1964 16.7088 14.6051 17.4426 14.7489 17.4726C14.9521 17.5163 15.163 17.5082 15.3622 17.449C15.5614 17.3898 15.7425 17.2814 15.8889 17.1338L17.5063 15.5176L20.7388 18.7501L18.2313 21.2563Z" fill="#000000"/>
</svg>
