<svg width="25" height="25" viewBox="0 0 25 25" fill="none" xmlns="http://www.w3.org/2000/svg">
<path d="M13.7499 6.25H11.25V11.25H6.25V13.7499H11.25V18.7499H13.7499V13.7499H18.7499V11.25H13.7499V6.25Z" fill="#000000"/>
<path d="M12.4999 0C5.60744 0 0 5.60744 0 12.4999C0 19.3923 5.60744 24.9998 12.4999 24.9998C19.3923 24.9998 24.9998 19.3923 24.9998 12.4999C24.9998 5.60744 19.3923 0 12.4999 0ZM12.4999 22.4998C6.98618 22.4998 2.49997 18.0136 2.49997 12.4999C2.49997 6.98618 6.98618 2.49997 12.4999 2.49997C18.0136 2.49997 22.4998 6.98618 22.4998 12.4999C22.4998 18.0136 18.0136 22.4998 12.4999 22.4998Z" fill="#000000"/>
</svg>
