<svg width="16" height="16" viewBox="0 0 16 16" fill="none" xmlns="http://www.w3.org/2000/svg">
<path d="M2.39998 12.8001V15.8129L3.61196 15.0857L7.42153 12.8001H11.1999C12.0823 12.8001 12.7999 12.0825 12.7999 11.2001V4.80018C12.7999 3.91779 12.0823 3.2002 11.1999 3.2002H1.59998C0.717593 3.2002 0 3.91779 0 4.80018V11.2001C0 12.0825 0.717593 12.8001 1.59998 12.8001H2.39998ZM1.59998 4.80018H11.1999V11.2001H6.97833L3.99996 12.9873V11.2001H1.59998V4.80018Z" fill="#FF5900"/>
<path d="M14.4001 0H4.80018C3.91779 0 3.2002 0.717593 3.2002 1.59998H12.8001C13.6825 1.59998 14.4001 2.31758 14.4001 3.19997V9.5999C15.2825 9.5999 16.0001 8.88231 16.0001 7.99992V1.59998C16.0001 0.717593 15.2825 0 14.4001 0Z" fill="#FF5900"/>
</svg>
