<svg width="28" height="29" viewBox="0 0 28 29" fill="none" xmlns="http://www.w3.org/2000/svg">
<g filter="url(#filter0_d_48_1684)">
<path d="M23.2104 3.79513C22.011 2.58881 20.5843 1.63227 19.0128 0.980858C17.4413 0.329443 15.7563 -0.00392595 14.0552 3.48843e-05C6.9178 3.48843e-05 1.11166 5.80494 1.10857 12.9405C1.10577 15.2112 1.70154 17.4426 2.83586 19.4098L1 26.1153L7.86225 24.3159C9.76001 25.3498 11.8867 25.8915 14.0478 25.8914H14.0552C21.1895 25.8914 26.9969 20.0853 26.9999 12.951C27.0051 11.2502 26.673 9.56535 26.0229 7.99378C25.3727 6.42221 24.4174 4.99514 23.2123 3.79513H23.2104Z" fill="#E0E0E0"/>
<path d="M14.0551 23.7064H14.0508C12.124 23.7064 10.2326 23.1884 8.57465 22.2067L8.18169 21.9735L4.11024 23.0414L5.19719 19.0723L4.94118 18.6658C3.86352 16.9513 3.29332 14.9667 3.29656 12.9417C3.29656 7.01095 8.12247 2.18628 14.0551 2.18628C15.4682 2.1866 16.8674 2.46527 18.1728 3.00638C19.4781 3.54748 20.6642 4.34042 21.6631 5.33991C22.662 6.33941 23.4543 7.52588 23.9946 8.83158C24.535 10.1373 24.8128 11.5366 24.8124 12.9497C24.8099 18.8805 19.9834 23.7064 14.0551 23.7064Z" fill="#E0E0E0"/>
<path d="M1.59399 25.3719L3.34656 18.9717C2.26366 17.0948 1.69489 14.9655 1.69762 12.7986C1.70009 5.98935 7.24159 0.449707 14.0508 0.449707C15.6734 0.449788 17.2801 0.769531 18.7792 1.39067C20.2782 2.01181 21.6402 2.92219 22.7874 4.06979C23.9345 5.21739 24.8443 6.57975 25.4649 8.07903C26.0854 9.57832 26.4045 11.1852 26.404 12.8078C26.4009 19.617 20.8594 25.1573 14.0514 25.1573H14.0459C11.9835 25.157 9.95409 24.6402 8.14286 23.6539L1.59399 25.3719Z" fill="url(#paint0_linear_48_1684)"/>
<path fill-rule="evenodd" clip-rule="evenodd" d="M10.8546 7.4464C10.6153 6.91403 10.3611 6.90354 10.1347 6.8912C9.94967 6.88318 9.735 6.8838 9.52217 6.8838C9.36015 6.88787 9.20073 6.92549 9.05399 6.9943C8.90725 7.0631 8.77638 7.16159 8.66963 7.28354C8.37969 7.60556 7.5506 8.37975 7.5506 9.95281C7.5506 11.5259 8.69616 13.0465 8.85593 13.2599C9.01571 13.4734 11.0681 16.8046 14.3178 18.0859C17.0186 19.1512 17.5682 18.939 18.1549 18.8878C18.7415 18.8366 20.0463 18.1142 20.314 17.3678C20.5817 16.6214 20.5805 15.9816 20.4991 15.8478C20.4176 15.7139 20.206 15.6343 19.8865 15.4746C19.5669 15.3148 17.9945 14.5412 17.7015 14.4345C17.4085 14.3278 17.1956 14.2747 16.9822 14.5949C16.7687 14.9151 16.1568 15.6325 15.9674 15.8459C15.778 16.0594 15.5973 16.0859 15.2746 15.9261C14.952 15.7664 13.9249 15.4289 12.7035 14.3395C11.7528 13.4919 11.1113 12.4457 10.925 12.1255C10.7387 11.8053 10.9046 11.632 11.065 11.4728C11.2087 11.3297 11.3852 11.0996 11.5449 10.9133C11.7047 10.727 11.7578 10.5931 11.8645 10.3797C11.9712 10.1663 11.9175 9.97996 11.838 9.81956C11.7584 9.65917 11.1366 8.07871 10.8509 7.4464H10.8546Z" fill="white"/>
<path d="M23.1042 3.75439C21.9189 2.56173 20.5088 1.61602 18.9555 0.972006C17.4022 0.327989 15.7366 -0.0015448 14.0551 0.00247779C6.99916 0.00247779 1.25902 5.74077 1.25655 12.7943C1.25349 15.0391 1.84247 17.245 2.9641 19.1895L1.14922 25.818L7.93497 24.0395C9.81111 25.0611 11.9133 25.5964 14.0496 25.5965H14.0551C21.1074 25.5965 26.8487 19.8595 26.8512 12.8047C26.8568 11.1235 26.5287 9.45786 25.8859 7.90432C25.2431 6.35078 24.2985 4.94023 23.1067 3.75439H23.1042ZM14.0551 23.4362H14.0514C12.1467 23.4366 10.277 22.9253 8.63761 21.9556L8.24897 21.7256L4.22131 22.781L5.29531 18.8558L5.04239 18.4536C3.97739 16.7585 3.41365 14.7967 3.41628 12.7949C3.41628 6.93444 8.18975 2.16343 14.0563 2.16343C15.4531 2.16384 16.8361 2.43939 18.1264 2.97434C19.4167 3.5093 20.589 4.29318 21.5763 5.28123C22.5636 6.26928 23.3466 7.44213 23.8805 8.73281C24.4145 10.0235 24.689 11.4067 24.6884 12.8035C24.6859 18.6664 19.9155 23.4362 14.0551 23.4362Z" fill="white"/>
</g>
<defs>
<filter id="filter0_d_48_1684" x="0" y="0" width="28" height="28.1152" filterUnits="userSpaceOnUse" color-interpolation-filters="sRGB">
<feFlood flood-opacity="0" result="BackgroundImageFix"/>
<feColorMatrix in="SourceAlpha" type="matrix" values="0 0 0 0 0 0 0 0 0 0 0 0 0 0 0 0 0 0 127 0" result="hardAlpha"/>
<feOffset dy="1"/>
<feGaussianBlur stdDeviation="0.5"/>
<feComposite in2="hardAlpha" operator="out"/>
<feColorMatrix type="matrix" values="0 0 0 0 0 0 0 0 0 0 0 0 0 0 0 0 0 0 0.25 0"/>
<feBlend mode="normal" in2="BackgroundImageFix" result="effect1_dropShadow_48_1684"/>
<feBlend mode="normal" in="SourceGraphic" in2="effect1_dropShadow_48_1684" result="shape"/>
</filter>
<linearGradient id="paint0_linear_48_1684" x1="14.0238" y1="25.5719" x2="14.0238" y2="0.659646" gradientUnits="userSpaceOnUse">
<stop stop-color="#20B038"/>
<stop offset="1" stop-color="#60D66A"/>
</linearGradient>
</defs>
</svg>
